<svg width="512" height="512" viewBox="0 0 512 512" fill="none" xmlns="http://www.w3.org/2000/svg">
<path d="M172 76H89C86.3478 76 83.8043 77.0536 81.9289 78.9289C80.0536 80.8043 79 83.3478 79 86V169C79 171.652 80.0536 174.196 81.9289 176.071C83.8043 177.946 86.3478 179 89 179H172C174.652 179 177.196 177.946 179.071 176.071C180.946 174.196 182 171.652 182 169V86C182 83.3478 180.946 80.8043 179.071 78.9289C177.196 77.0536 174.652 76 172 76ZM163 160H99V96H163V160Z" fill="url(#paint0_linear_1_2)"/>
<path d="M297 76H214C211.348 76 208.804 77.0536 206.929 78.9289C205.054 80.8043 204 83.3478 204 86V169C204 171.652 205.054 174.196 206.929 176.071C208.804 177.946 211.348 179 214 179H297C299.652 179 302.196 177.946 304.071 176.071C305.946 174.196 307 171.652 307 169V86C307 83.3478 305.946 80.8043 304.071 78.9289C302.196 77.0536 299.652 76 297 76ZM288 160H224V96H288V160Z" fill="url(#paint1_linear_1_2)"/>
<path d="M172 202H89C86.3478 202 83.8043 203.054 81.9289 204.929C80.0536 206.804 79 209.348 79 212V295C79 297.652 80.0536 300.196 81.9289 302.071C83.8043 303.946 86.3478 305 89 305H172C174.652 305 177.196 303.946 179.071 302.071C180.946 300.196 182 297.652 182 295V212C182 209.348 180.946 206.804 179.071 204.929C177.196 203.054 174.652 202 172 202V202ZM163 285H99V222H163V285Z" fill="url(#paint2_linear_1_2)"/>
<path d="M297 202H214C211.348 202 208.804 203.054 206.929 204.929C205.054 206.804 204 209.348 204 212V295C204 297.652 205.054 300.196 206.929 302.071C208.804 303.946 211.348 305 214 305H297C299.652 305 302.196 303.946 304.071 302.071C305.946 300.196 307 297.652 307 295V212C307 209.348 305.946 206.804 304.071 204.929C302.196 203.054 299.652 202 297 202V202ZM288 285H224V222H288V285Z" fill="url(#paint3_linear_1_2)"/>
<path d="M422 76H339C336.348 76 333.804 77.0536 331.929 78.9289C330.054 80.8043 329 83.3478 329 86V169C329 171.652 330.054 174.196 331.929 176.071C333.804 177.946 336.348 179 339 179H422C424.652 179 427.196 177.946 429.071 176.071C430.946 174.196 432 171.652 432 169V86C432 83.3478 430.946 80.8043 429.071 78.9289C427.196 77.0536 424.652 76 422 76ZM413 160H349V96H413V160Z" fill="url(#paint4_linear_1_2)"/>
<path d="M422 202H339C336.348 202 333.804 203.054 331.929 204.929C330.054 206.804 329 209.348 329 212V295C329 297.652 330.054 300.196 331.929 302.071C333.804 303.946 336.348 305 339 305H422C424.652 305 427.196 303.946 429.071 302.071C430.946 300.196 432 297.652 432 295V212C432 209.348 430.946 206.804 429.071 204.929C427.196 203.054 424.652 202 422 202V202ZM413 285H349V222H413V285Z" fill="url(#paint5_linear_1_2)"/>
<path d="M172 332H89C86.3478 332 83.8043 333.054 81.9289 334.929C80.0536 336.804 79 339.348 79 342V425C79 427.652 80.0536 430.196 81.9289 432.071C83.8043 433.946 86.3478 435 89 435H172C174.652 435 177.196 433.946 179.071 432.071C180.946 430.196 182 427.652 182 425V342C182 339.348 180.946 336.804 179.071 334.929C177.196 333.054 174.652 332 172 332V332ZM163 416H99V352H163V416Z" fill="url(#paint6_linear_1_2)"/>
<path d="M297 332H214C211.348 332 208.804 333.054 206.929 334.929C205.054 336.804 204 339.348 204 342V425C204 427.652 205.054 430.196 206.929 432.071C208.804 433.946 211.348 435 214 435H297C299.652 435 302.196 433.946 304.071 432.071C305.946 430.196 307 427.652 307 425V342C307 339.348 305.946 336.804 304.071 334.929C302.196 333.054 299.652 332 297 332V332ZM288 416H224V352H288V416Z" fill="url(#paint7_linear_1_2)"/>
<path d="M422 332H339C336.348 332 333.804 333.054 331.929 334.929C330.054 336.804 329 339.348 329 342V425C329 427.652 330.054 430.196 331.929 432.071C333.804 433.946 336.348 435 339 435H422C424.652 435 427.196 433.946 429.071 432.071C430.946 430.196 432 427.652 432 425V342C432 339.348 430.946 336.804 429.071 334.929C427.196 333.054 424.652 332 422 332V332ZM413 416H349V352H413V416Z" fill="url(#paint8_linear_1_2)"/>
<path d="M227.997 232.134L227.209 232.145L227.858 232.59C244.993 244.354 257.293 260.233 266.103 279.106L266.318 279.566L266.551 279.115C283.032 247.303 303.639 217.278 328.892 189.214L329.26 188.805L328.71 188.797C321.306 188.686 317.501 188.632 313.976 190.289C312.213 191.117 310.529 192.367 308.501 194.226C306.475 196.083 304.091 198.561 300.932 201.85C288.148 215.154 276.333 230.392 265.693 247.982C258.856 239.639 254.367 235.584 249.134 233.671C244.275 231.895 238.794 231.976 230.262 232.102C229.53 232.113 228.775 232.124 227.997 232.134Z" fill="#00E6A1" stroke="black" stroke-width="0.5"/>
<defs>
<linearGradient id="paint0_linear_1_2" x1="130.5" y1="12" x2="130.5" y2="490.602" gradientUnits="userSpaceOnUse">
<stop stop-color="#00EFD1"/>
<stop offset="1" stop-color="#00ACEA"/>
</linearGradient>
<linearGradient id="paint1_linear_1_2" x1="26520.5" y1="1312" x2="26520.5" y2="50608" gradientUnits="userSpaceOnUse">
<stop stop-color="#00EFD1"/>
<stop offset="1" stop-color="#00ACEA"/>
</linearGradient>
<linearGradient id="paint2_linear_1_2" x1="130.5" y1="12" x2="130.5" y2="490.602" gradientUnits="userSpaceOnUse">
<stop stop-color="#00EFD1"/>
<stop offset="1" stop-color="#00ACEA"/>
</linearGradient>
<linearGradient id="paint3_linear_1_2" x1="26520.5" y1="1438" x2="26520.5" y2="50734" gradientUnits="userSpaceOnUse">
<stop stop-color="#00EFD1"/>
<stop offset="1" stop-color="#00ACEA"/>
</linearGradient>
<linearGradient id="paint4_linear_1_2" x1="39520.5" y1="1312" x2="39520.5" y2="50608" gradientUnits="userSpaceOnUse">
<stop stop-color="#00EFD1"/>
<stop offset="1" stop-color="#00ACEA"/>
</linearGradient>
<linearGradient id="paint5_linear_1_2" x1="39520.5" y1="1438" x2="39520.5" y2="50734" gradientUnits="userSpaceOnUse">
<stop stop-color="#00EFD1"/>
<stop offset="1" stop-color="#00ACEA"/>
</linearGradient>
<linearGradient id="paint6_linear_1_2" x1="130.5" y1="12" x2="130.5" y2="490.602" gradientUnits="userSpaceOnUse">
<stop stop-color="#00EFD1"/>
<stop offset="1" stop-color="#00ACEA"/>
</linearGradient>
<linearGradient id="paint7_linear_1_2" x1="26520.5" y1="1568" x2="26520.5" y2="50864" gradientUnits="userSpaceOnUse">
<stop stop-color="#00EFD1"/>
<stop offset="1" stop-color="#00ACEA"/>
</linearGradient>
<linearGradient id="paint8_linear_1_2" x1="39520.5" y1="1568" x2="39520.5" y2="50864" gradientUnits="userSpaceOnUse">
<stop stop-color="#00EFD1"/>
<stop offset="1" stop-color="#00ACEA"/>
</linearGradient>
</defs>
</svg>
