<svg width="200" height="200" viewBox="0 0 200 200" fill="none" xmlns="http://www.w3.org/2000/svg">
<path d="M165.13 55.76C161.37 39.4494 151.476 25.2118 137.5 16C126.503 8.34957 113.396 4.31278 100 4.44998C96.6994 4.48541 93.4051 4.74602 90.14 5.22998C75.7132 7.2127 62.3683 13.9767 52.24 24.44C40.6145 36.021 33.75 51.5376 33 67.93C32.25 81.03 34.89 93.37 41.64 104.57C59 133.43 76.69 162.12 94.21 190.9C95.4 192.84 96.65 194.59 98.78 195.55H101.4C102.74 194.32 104.46 193.33 105.4 191.84C122.733 163.42 140.03 134.963 157.29 106.47C161.955 98.9856 165.055 90.6334 166.402 81.9177C167.75 73.2021 167.317 64.3037 165.13 55.76V55.76ZM100 105.23H99.4C81.23 105.21 66.25 90 66.23 71.6C66.21 53.2 81.33 37.94 99.41 37.91H100C118.54 38.2 133.57 53.23 133.56 71.61C133.534 80.5081 129.991 89.0351 123.705 95.3327C117.419 101.63 108.898 105.188 100 105.23Z" fill="#09C372"/>
<path opacity="0.9" d="M66.23 71.6C66.23 90.02 81.23 105.21 99.4 105.24H100V195.56H98.78C96.65 194.56 95.4 192.85 94.21 190.91C76.69 162.12 59 133.43 41.63 104.57C34.88 93.37 32.24 81 33 67.93C33.75 51.5376 40.6145 36.0211 52.24 24.44C62.3683 13.9768 75.7132 7.21273 90.14 5.23001C93.4051 4.74605 96.6994 4.48544 100 4.45001V37.92H99.41C81.33 37.94 66.22 53.28 66.23 71.6Z" fill="#0ADE82"/>
</svg>
